#!OML:ASF Y:\EmotionMaleHayes\Project 1\Capture day 1\Session 1\Male1.ASF
:FULLY-SPECIFIED
:DEGREES
2045
root 9.6581 16.7436 5.95671 895.054 203.115 -167.804
lowerback 5.74107 -0.359163 -19.3523
upperback 5.00616 -1.2703 -6.98212
thorax 2.47661 -1.12752 3.30247
lowerneck -21.0192 4.04219 2.62992
upperneck 34.1223 7.40341 -6.71037
head 16.0946 2.34387 -1.91657
rclavicle -7.4743e-014 4.45278e-014
rhumerus -49.6317 -7.58683 -67.2777
rradius 30.9291
rwrist 1.57075
rhand -11.3389 -31.7458
rfingers 7.12502
rthumb 14.694 -61.2051
lclavicle -7.4743e-014 4.45278e-014
lhumerus 8.55861 -36.6058 75.741
lradius 52.4892
lwrist 8.18384
lhand -25.5005 -30.1533
lfingers 7.12502
lthumb 1.0282 -0.176057
rfemur -17.8205 -17.6872 15.5151
rtibia 5.66209
rfoot -17.5049 -1.89859
rtoes -1.34938
lfemur 16.5408 8.24575 -31.7277
ltibia 8.27314
lfoot -24.3712 17.572
ltoes -3.05856
2046
root 9.61336 16.7002 6.10728 894.871 203.037 -167.59
lowerback 5.70666 -0.386245 -19.4517
upperback 4.922 -1.31366 -6.92258
thorax 2.41805 -1.14334 3.42053
lowerneck -20.7477 4.04793 3.13368
upperneck 33.6281 7.49768 -7.55589
head 15.8724 2.34813 -2.34127
rclavicle -5.56597e-015 -4.77083e-014
rhumerus -49.7041 -7.89974 -66.8763
rradius 30.7053
rwrist 1.63047
rhand -11.265 -31.4986
rfingers 7.12502
rthumb 14.7652 -60.9526
lclavicle -5.56597e-015 -4.77083e-014
lhumerus 8.06004 -36.9463 76.3745
lradius 52.4949
lwrist 8.09253
lhand -25.5063 -30.5178
lfingers 7.12502
lthumb 1.02257 -0.540521
rfemur -17.9835 -17.9336 15.4377
rtibia 6.63146
rfoot -17.4442 -1.94481
rtoes -1.44255
lfemur 16.7346 8.01946 -32.0766
ltibia 9.33603
lfoot -25.3415 17.4622
ltoes -2.36911
2047
root 9.5672 16.6564 6.25979 894.716 202.899 -167.369
lowerback 5.63911 -0.405138 -19.4308
upperback 4.85749 -1.32969 -6.93577
thorax 2.38672 -1.14426 3.39653
lowerneck -20.83 3.9245 3.12614
upperneck 33.4179 7.40093 -7.82304
head 15.7986 2.27353 -2.46695
rclavicle 4.41302e-014 1.59028e-014
rhumerus -49.8 -8.59306 -66.3643
rradius 30.4513
rwrist 2.00338
rhand -11.0337 -31.2939
rfingers 7.12502
rthumb 14.988 -60.7315
lclavicle 4.41302e-014 1.59028e-014
lhumerus 7.52732 -37.7294 76.6837
lradius 52.75
lwrist 8.3201
lhand -25.597 -30.7291
lfingers 7.12502
lthumb 0.934965 -0.751412
rfemur -18.1015 -18.0658 15.1673
rtibia 7.64097
rfoot -16.9168 -1.92571
rtoes -1.24356
lfemur 16.8927 8.05707 -32.2978
ltibia 10.4505
lfoot -25.9683 17.5214
ltoes -3.95111
2048
root 9.51768 16.6123 6.41316 894.626 202.784 -167.212
lowerback 5.51263 -0.470322 -19.3034
upperback 4.79097 -1.38702 -6.95511
thorax 2.38952 -1.16482 3.31043
lowerneck -20.9857 3.89369 3.04114
upperneck 33.2065 7.41509 -7.9364
head 15.7376 2.25505 -2.48905
rclavicle -2.38542e-014 4.77083e-015
rhumerus -49.9057 -9.22352 -66.0131
rradius 30.2612
rwrist 2.40241
rhand -10.8946 -31.0928
rfingers 7.12502
rthumb 15.122 -60.5204
lclavicle -2.38542e-014 4.77083e-015
lhumerus 6.72914 -38.3836 77.0485
lradius 53.1602
lwrist 8.51204
lhand -25.7282 -30.6826
lfingers 7.12502
lthumb 0.808273 -0.70442
rfemur -18.0844 -17.7524 14.8125
rtibia 8.39399
rfoot -16.3523 -1.92897
rtoes 4.10566
lfemur 16.9498 8.049 -32.4687
ltibia 11.6488
lfoot -26.6061 17.7332
ltoes -5.55715
2049
root 9.4704 16.5659 6.56838 894.55 202.64 -167.282
lowerback 5.46133 -0.550244 -18.9803
upperback 4.75281 -1.47073 -6.90797
thorax 2.37814 -1.19438 3.19611
lowerneck -21.114 3.95521 3.01664
upperneck 32.9218 7.51542 -7.99028
head 15.6409 2.29199 -2.47617
rclavicle -2.46493e-014 -6.36111e-014
rhumerus -50.0227 -9.7154 -65.7622
rradius 30.1533
rwrist 2.64394
rhand -10.7666 -30.9705
rfingers 7.12502
rthumb 15.2453 -60.3887
lclavicle -2.46493e-014 -6.36111e-014
lhumerus 5.88423 -38.4678 77.9334
lradius 53.0917
lwrist 8.20861
lhand -25.7132 -30.7568
lfingers 7.12502
lthumb 0.822717 -0.778639
rfemur -17.9187 -17.7731 14.7124
rtibia 9.03097
rfoot -15.362 -2.10676
rtoes 9.69351
lfemur 17.0652 7.69444 -32.5644
ltibia 12.8811
lfoot -27.3401 18.0408
ltoes -6.30746
2050
root 9.4219 16.5186 6.72333 894.346 202.444 -167.419
lowerback 5.58639 -0.580141 -18.6271
upperback 4.72929 -1.53061 -6.85427
thorax 2.27638 -1.20607 3.07676
lowerneck -21.3822 3.95954 2.75208
upperneck 32.8313 7.50311 -7.67184
head 15.6262 2.29617 -2.28896
rclavicle -2.54444e-014 -8.11041e-014
rhumerus -50.1984 -10.2251 -65.5344
rradius 30.0139
rwrist 2.96289
rhand -10.6527 -31.0725
rfingers 7.12502
rthumb 15.355 -60.4824
lclavicle -2.54444e-014 -8.11041e-014
lhumerus 4.97665 -38.4551 79.0063
lradius 52.7925
lwrist 7.80947
lhand -25.4887 -30.926
lfingers 7.12502
lthumb 1.03958 -0.948773
rfemur -17.6061 -18.3163 14.6573
rtibia 9.61558
rfoot -13.2946 -2.89048
rtoes 7.47391
lfemur 17.3494 7.02847 -32.7191
ltibia 14.1419
lfoot -28.1989 18.2466
ltoes -5.927
2051
root 9.37059 16.4746 6.87065 894.104 202.242 -167.509
lowerback 5.80543 -0.597517 -18.4447
upperback 4.70592 -1.60281 -6.70056
thorax 2.13574 -1.22724 3.15535
lowerneck -21.1783 3.9525 2.98843
upperneck 32.2636 7.54556 -8.19503
head 15.3566 2.29194 -2.52832
rclavicle 6.59965e-014 1.06549e-013
rhumerus -50.1993 -10.6004 -65.281
rradius 29.8001
rwrist 3.10666
rhand -10.9319 -31.1455
rfingers 7.12502
rthumb 15.086 -60.5757
lclavicle 6.59965e-014 1.06549e-013
lhumerus 3.91617 -38.5051 80.0706
lradius 52.6463
lwrist 7.53894
lhand -25.2818 -30.8885
lfingers 7.12502
lthumb 1.23937 -0.912306
rfemur -17.3079 -18.7485 14.398
rtibia 10.178
rfoot -11.1214 -4.16954
rtoes 13.2661
lfemur 17.5849 6.30847 -32.8904
ltibia 15.5502
lfoot -29.0865 18.0336
ltoes -4.29793
2052
root 9.31955 16.434 7.01251 894.037 202.113 -167.905
lowerback 5.99093 -0.626028 -17.9777
upperback 4.70114 -1.66318 -6.4384
thorax 2.02127 -1.23957 3.19984
lowerneck -21.192 3.88949 2.90195
upperneck 31.9233 7.55348 -8.46199
head 15.2146 2.25696 -2.61296
rclavicle -3.49861e-014 1.59028e-015
rhumerus -49.9968 -10.8714 -65.0904
rradius 29.4783
rwrist 3.1258
rhand -11.3841 -31.0932
rfingers 7.12502
rthumb 14.6504 -60.5557
lclavicle -3.49861e-014 1.59028e-015
lhumerus 2.86628 -38.4284 81.2286
lradius 52.3717
lwrist 7.17836
lhand -25.247 -30.7738
lfingers 7.12502
lthumb 1.27299 -0.797876
rfemur -17.1341 -18.8337 14.4482
rtibia 10.8574
rfoot -9.64045 -5.94992
rtoes 18.02
lfemur 17.7313 5.846 -32.5637
ltibia 17.0439
lfoot -29.4405 17.8662
ltoes -4.47132
2053
root 9.26618 16.4004 7.15884 894.213 201.997 -168.903
lowerback 6.05255 -0.629333 -16.8375
upperback 4.76163 -1.618 -6.14029
thorax 1.9955 -1.19239 2.91981
lowerneck -21.323 3.74978 2.80944
upperneck 31.7991 7.34867 -8.39535
head 15.1611 2.17106 -2.60271
rclavicle 8.07066e-014 4.77083e-015
rhumerus -49.8406 -11.5727 -64.8663
rradius 28.9925
rwrist 3.68533
rhand -11.4003 -31.0646
rfingers 7.12502
rthumb 14.6349 -60.5282
lclavicle 8.07066e-014 4.77083e-015
lhumerus 1.92425 -38.438 82.4827
lradius 51.7955
lwrist 6.76507
lhand -25.0868 -30.7454
lfingers 7.12502
lthumb 1.42769 -0.770469
rfemur -16.9442 -18.5849 15.254
rtibia 11.6914
rfoot -8.2035 -7.02074
rtoes 22.1488
lfemur 17.9234 5.56957 -31.4496
ltibia 18.5016
lfoot -29.2896 17.6539
ltoes -5.90379
2054
root 9.20437 16.377 7.30813 894.675 201.987 -170.913
lowerback 6.04099 -0.631062 -14.9166
upperback 4.92788 -1.50465 -5.52681
thorax 2.08821 -1.10606 2.54551
lowerneck -21.5599 3.5456 2.60198
upperneck 31.7346 7.0608 -8.22325
head 15.1426 2.0468 -2.54545
rclavicle 2.94201e-014 2.8625e-014
rhumerus -49.57 -12.4025 -64.5307
rradius 28.486
rwrist 4.56496
rhand -11.1461 -31.0127
rfingers 7.12502
rthumb 14.8797 -60.4584
lclavicle 2.94201e-014 2.8625e-014
lhumerus 1.06735 -38.0758 84.0236
lradius 50.8099
lwrist 6.11472
lhand -24.796 -30.8277
lfingers 7.12502
lthumb 1.70861 -0.854773
rfemur -16.4925 -17.4903 17.2121
rtibia 12.4465
rfoot -8.0824 -6.10651
rtoes 26.4323
lfemur 18.26 5.45212 -29.0516
ltibia 19.9247
lfoot -28.7963 17.4308
ltoes -7.66783
2055
root 9.13219 16.3649 7.45428 895.214 202.164 -173.7
lowerback 6.13882 -0.645797 -12.4689
upperback 5.18738 -1.40332 -4.63221
thorax 2.21049 -1.01621 2.16559
lowerneck -21.7952 3.33857 2.44766
upperneck 31.6454 6.81493 -8.24346
head 15.1308 1.9193 -2.57053
rclavicle 1.8487e-014 -5.40694e-014
rhumerus -49.0126 -12.8835 -64.3785
rradius 28.0312
rwrist 5.29173
rhand -11.0073 -30.9038
rfingers 7.12502
rthumb 15.0135 -60.3395
lclavicle 1.8487e-014 -5.40694e-014
lhumerus 0.114405 -37.0836 85.7167
lradius 49.627
lwrist 5.13949
lhand -24.6023 -30.8649
lfingers 7.12502
lthumb 1.89568 -0.893548
rfemur -15.6846 -16.0321 20.0776
rtibia 13.0828
rfoot -8.37692 -5.78533
rtoes 30.4523
lfemur 18.8027 5.71357 -25.4683
ltibia 21.4053
lfoot -28.0695 17.2598
ltoes -10.2594
2056
root 9.0573 16.3704 7.59483 895.403 202.229 -175.854
lowerback 6.39557 -0.690517 -10.7089
upperback 5.44014 -1.40269 -3.92569
thorax 2.27885 -0.986346 1.94817
lowerneck -21.9088 3.20496 2.43765
upperneck 31.5707 6.57549 -8.13765
head 15.0962 1.83279 -2.5674
rclavicle 1.96797e-014 3.33958e-014
rhumerus -48.2973 -13.0194 -64.5457
rradius 27.6425
rwrist 6.04215
rhand -10.9514 -30.8845
rfingers 7.12502
rthumb 15.0673 -60.3162
lclavicle 1.96797e-014 3.33958e-014
lhumerus -1.15383 -36.0054 87.2411
lradius 48.6009
lwrist 4.2197
lhand -24.4921 -30.925
lfingers 7.12502
lthumb 2.00208 -0.954641
rfemur -14.7284 -15.5465 22.231
rtibia 13.8023
rfoot -8.9624 -5.68133
rtoes 31.6126
lfemur 19.2812 6.01002 -22.4743
ltibia 23.1531
lfoot -27.2679 16.7701
ltoes -12.074
2057
root 8.98164 16.3892 7.72787 895.332 202.257 -177.202
lowerback 6.73591 -0.678039 -9.71105
upperback 5.56789 -1.37854 -3.49817
thorax 2.19163 -0.951527 1.85182
lowerneck -21.8795 3.07721 2.44986
upperneck 31.6169 6.22472 -7.69843
head 15.0593 1.75037 -2.45359
rclavicle -2.08724e-014 -3.18055e-015
rhumerus -47.8298 -13.1612 -64.8567
rradius 27.5368
rwrist 6.90673
rhand -11.039 -30.9668
rfingers 7.12502
rthumb 14.9829 -60.4048
lclavicle -2.08724e-014 -3.18055e-015
lhumerus -2.60149 -35.0291 88.6809
lradius 47.4648
lwrist 3.3604
lhand -24.2362 -31.0478
lfingers 7.12502
lthumb 2.24927 -1.07987
rfemur -13.6503 -15.4255 23.4718
rtibia 14.2375
rfoot -9.64762 -6.06823
rtoes 30.5037
lfemur 19.5281 6.04135 -20.5185
ltibia 25.096
lfoot -26.3622 16.0339
ltoes -12.1207
2058
root 8.90174 16.4153 7.85819 895.18 202.383 -178.212
lowerback 7.03676 -0.581802 -9.01883
upperback 5.63195 -1.25198 -3.21073
thorax 2.05929 -0.869383 1.77039
lowerneck -21.7085 2.89587 2.58471
upperneck 31.7041 5.74477 -7.24844
head 15.0057 1.63236 -2.38364
rclavicle -2.98177e-014 -2.70347e-014
rhumerus -47.6088 -13.6187 -65.2305
rradius 27.6511
rwrist 7.93011
rhand -11.2617 -30.8436
rfingers 7.12502
rthumb 14.7684 -60.2975
lclavicle -2.98177e-014 -2.70347e-014
lhumerus -4.12647 -34.1619 89.9204
lradius 46.3516
lwrist 2.73896
lhand -23.7956 -30.8158
lfingers 7.12502
lthumb 2.67475 -0.852802
rfemur -12.4826 -15.4563 24.3567
rtibia 14.4376
rfoot -10.1153 -6.25181
rtoes 30.18
lfemur 19.6302 6.22838 -18.836
ltibia 27.1509
lfoot -25.1555 15.1647
ltoes -11.7668
2059
root 8.81984 16.4494 7.98796 894.951 202.539 -178.933
lowerback 7.22273 -0.552418 -8.75828
upperback 5.70572 -1.21823 -2.94771
thorax 2.02711 -0.850454 1.90089
lowerneck -21.4874 2.76608 2.76473
upperneck 31.7739 5.3179 -6.79035
head 14.9406 1.5437 -2.30735
rclavicle -3.73715e-014 1.43125e-014
rhumerus -47.1262 -13.6477 -65.9115
rradius 27.8024
rwrist 8.92353
rhand -11.4507 -30.6039
rfingers 7.12502
rthumb 14.5863 -60.071
lclavicle -3.73715e-014 1.43125e-014
lhumerus -5.73465 -33.1836 90.8693
lradius 45.4212
lwrist 2.61644
lhand -23.716 -30.4796
lfingers 7.12502
lthumb 2.75162 -0.517599
rfemur -11.3514 -16.0024 24.8775
rtibia 14.6752
rfoot -10.256 -5.47741
rtoes 30.2365
lfemur 19.5486 6.64747 -17.3129
ltibia 29.4124
lfoot -23.592 14.3732
ltoes -11.8262
